<svg width="30" height="30" viewBox="0 0 30 30" fill="none" xmlns="http://www.w3.org/2000/svg">
<path d="M29.4167 23.8549L26.0909 21.6375L23.1343 19.6668C22.5637 19.2872 21.7969 19.4116 21.3757 19.9523L19.5462 22.3042C19.1533 22.8145 18.4463 22.9612 17.8828 22.6492C16.6414 21.9587 15.1735 21.3085 11.9346 18.0654C8.69566 14.8224 8.04135 13.3586 7.35083 12.1172C7.03883 11.5537 7.18548 10.8468 7.69583 10.4538L10.0477 8.62438C10.5883 8.20322 10.7129 7.43641 10.3332 6.86577L8.42309 4.00027L6.14516 0.583355C5.75745 0.00175901 4.98133 -0.172849 4.38192 0.18662L1.75484 1.76266C1.04486 2.18096 0.522974 2.85642 0.297273 3.64901C-0.421138 6.2683 -0.56598 12.0463 8.69408 21.3064C17.9541 30.5665 23.7317 30.4212 26.351 29.7027C27.1435 29.477 27.819 28.9552 28.2373 28.2451L29.8133 25.6181C30.1729 25.0186 29.9983 24.2426 29.4167 23.8549Z" fill="white"/>
</svg>
