<svg width="77" height="87" viewBox="0 0 77 87" fill="none" xmlns="http://www.w3.org/2000/svg">
<path d="M69.2111 43.953C69.6248 41.572 69.8594 39.0111 69.922 36.2729C70.276 24.9614 67.5515 16.1182 61.7546 9.74867C56.489 3.97409 49.4197 0.760728 40.541 0.106681C31.6071 -0.612546 23.7962 2.30622 17.1107 8.85467C9.95262 15.8226 6.37086 24.9291 6.37086 36.185C6.37086 38.3257 6.51911 40.5313 6.81211 42.7932C2.37533 45.4119 0.157898 47.9725 0.157898 50.475C0.157898 51.3099 0.451852 52.1393 1.04583 52.9723C1.99223 54.1053 3.14568 54.6689 4.50649 54.6689C5.86667 54.6689 7.37541 54.1053 9.03433 52.9723C9.09216 53.0915 9.15128 53.24 9.20911 53.4202C11.5742 59.0149 14.9217 63.9904 19.2412 68.3339C29.6523 78.6338 44.1231 84.8563 62.6422 87C57.7907 82.8884 55.5422 78.6932 55.8985 74.4092C56.5477 70.9549 58.0849 67.3821 60.5117 63.6878C63.7049 58.8705 65.7188 55.507 66.5476 53.5989C68.7379 55.507 70.7182 56.454 72.4947 56.454C73.8549 56.454 74.9809 55.8613 75.8646 54.6689C76.5168 53.8963 76.842 53.064 76.842 52.1706C76.8414 49.3701 74.2971 46.6312 69.2111 43.953ZM20.3451 26.4018C18.999 25.0518 18.3194 23.4271 18.3194 21.5343C18.3194 19.6405 18.999 18.0129 20.3451 16.6748C21.6916 15.3207 23.3134 14.6411 25.2142 14.6411C27.2045 14.6411 28.8787 15.3207 30.2258 16.6748C31.578 18.0129 32.2515 19.6405 32.2515 21.5343C32.2515 23.4271 31.578 25.0518 30.2258 26.4018C28.8791 27.7495 27.2045 28.4201 25.2142 28.4201C23.3134 28.4201 21.6919 27.7495 20.3451 26.4018ZM36.2544 49.8148C35.3163 51.1616 34.192 51.8323 32.8803 51.8323C31.5639 51.8323 30.4389 51.1613 29.5056 49.8148C28.5717 48.4706 28.1068 46.7954 28.1068 44.7959C28.1068 42.9037 28.5717 41.2784 29.5056 39.9278C30.4389 38.5814 31.5639 37.9101 32.8803 37.9101C34.192 37.9101 35.3163 38.5814 36.2544 39.9278C37.1871 41.2784 37.6542 42.9037 37.6542 44.7959C37.6542 46.7951 37.1871 48.4706 36.2544 49.8148ZM54.6706 29.7257C53.3178 31.0724 51.6966 31.7434 49.8038 31.7434C47.9042 31.7434 46.2811 31.0724 44.935 29.7257C43.5892 28.3812 42.9173 26.706 42.9173 24.7067C42.9173 22.8139 43.5895 21.1892 44.935 19.8386C46.2811 18.4909 47.9042 17.8209 49.8038 17.8209C51.6969 17.8209 53.3178 18.4912 54.6706 19.8386C56.0167 21.1892 56.6896 22.8139 56.6896 24.7067C56.6899 26.7056 56.0167 28.3812 54.6706 29.7257Z" fill="white"/>
<path d="M27.4847 20.1415C26.7556 20.1415 26.1332 20.3987 25.6168 20.916C25.1008 21.4336 24.843 22.056 24.843 22.7832C24.843 23.5504 25.1011 24.1923 25.6168 24.7083C26.1332 25.225 26.7556 25.4815 27.4847 25.4815C28.21 25.4815 28.8327 25.225 29.351 24.7083C29.8683 24.1923 30.1261 23.5504 30.1261 22.7832C30.1261 22.056 29.8683 21.4333 29.351 20.916C28.8331 20.3987 28.21 20.1415 27.4847 20.1415Z" fill="white"/>
<path d="M46.8457 22.0384C46.1176 22.0384 45.4945 22.296 44.9778 22.8123C44.4618 23.3306 44.204 23.9533 44.204 24.6792C44.204 25.4464 44.4618 26.0886 44.9778 26.604C45.4945 27.1216 46.1172 27.3791 46.8457 27.3791C47.5723 27.3791 48.1944 27.1213 48.7123 26.604C49.2299 26.0886 49.4875 25.4461 49.4875 24.6792C49.4875 23.9533 49.2299 23.3302 48.7123 22.8123C48.1944 22.2956 47.5726 22.0384 46.8457 22.0384Z" fill="white"/>
</svg>
