<svg width="212" height="47" viewBox="0 0 212 47" fill="none" xmlns="http://www.w3.org/2000/svg">
<path d="M9.35 29.6H24V35H0.95V-2.38419e-06H9.35V29.6ZM29.5637 31.9C27.197 29.6 26.0137 26.4667 26.0137 22.5C26.0137 18.5333 27.197 15.4167 29.5637 13.15C31.9303 10.85 35.047 9.7 38.9137 9.7C42.7803 9.7 45.897 10.85 48.2637 13.15C50.6303 15.4167 51.8137 18.5333 51.8137 22.5C51.8137 26.4667 50.6303 29.6 48.2637 31.9C45.897 34.1667 42.7803 35.3 38.9137 35.3C35.047 35.3 31.9303 34.1667 29.5637 31.9ZM38.9137 14.6C37.3803 14.6 36.1803 15.2833 35.3137 16.65C34.447 18.0167 34.0137 19.9667 34.0137 22.5C34.0137 25.0667 34.447 27.0333 35.3137 28.4C36.147 29.7333 37.347 30.4 38.9137 30.4C40.4803 30.4 41.6803 29.7333 42.5137 28.4C43.3803 27.0333 43.8137 25.0667 43.8137 22.5C43.8137 19.9667 43.3803 18.0167 42.5137 16.65C41.647 15.2833 40.447 14.6 38.9137 14.6ZM67.5223 41.15C68.8556 41.15 69.9056 40.6667 70.6723 39.7C71.4723 38.7333 71.8723 37.3667 71.8723 35.6V32.9C70.2723 34.5 68.1556 35.3 65.5223 35.3C62.3223 35.3 59.7389 34.1667 57.7723 31.9C55.8056 29.5667 54.8223 26.4333 54.8223 22.5C54.8223 18.5333 55.8056 15.4167 57.7723 13.15C59.7389 10.85 62.3223 9.7 65.5223 9.7C68.2223 9.7 70.3389 10.6167 71.8723 12.45L72.4723 10H79.8723V35.6C79.8723 38.8333 78.7389 41.3833 76.4723 43.25C74.2056 45.1167 71.2223 46.05 67.5223 46.05C64.0223 46.05 61.2056 45.25 59.0723 43.65C56.9389 42.1167 55.8723 39.9667 55.8723 37.2H63.4723C63.4723 38.4667 63.8389 39.4333 64.5723 40.1C65.3056 40.8 66.2889 41.15 67.5223 41.15ZM67.4223 14.6C65.9889 14.6 64.8556 15.2833 64.0223 16.65C63.2223 18.0167 62.8223 19.9667 62.8223 22.5C62.8223 25.0333 63.2223 26.9833 64.0223 28.35C64.8556 29.7167 65.9889 30.4 67.4223 30.4C68.8223 30.4 69.9056 29.7333 70.6723 28.4C71.4723 27.0333 71.8723 25.0667 71.8723 22.5C71.8723 19.9333 71.4723 17.9833 70.6723 16.65C69.9056 15.2833 68.8223 14.6 67.4223 14.6ZM87.2785 31.9C84.9118 29.6 83.7285 26.4667 83.7285 22.5C83.7285 18.5333 84.9118 15.4167 87.2785 13.15C89.6452 10.85 92.7618 9.7 96.6285 9.7C100.495 9.7 103.612 10.85 105.979 13.15C108.345 15.4167 109.529 18.5333 109.529 22.5C109.529 26.4667 108.345 29.6 105.979 31.9C103.612 34.1667 100.495 35.3 96.6285 35.3C92.7618 35.3 89.6452 34.1667 87.2785 31.9ZM96.6285 14.6C95.0952 14.6 93.8952 15.2833 93.0285 16.65C92.1618 18.0167 91.7285 19.9667 91.7285 22.5C91.7285 25.0667 92.1618 27.0333 93.0285 28.4C93.8618 29.7333 95.0618 30.4 96.6285 30.4C98.1952 30.4 99.3952 29.7333 100.229 28.4C101.095 27.0333 101.529 25.0667 101.529 22.5C101.529 19.9667 101.095 18.0167 100.229 16.65C99.3618 15.2833 98.1618 14.6 96.6285 14.6ZM124.851 35.3C121.151 35.3 118.501 34.6667 116.901 33.4C115.335 32.1 114.551 30 114.551 27.1V14.8H111.401V10H114.551V4.75H122.551V10H127.651V14.8H122.551V27.7C122.551 29.5 123.585 30.4 125.651 30.4C126.485 30.4 127.151 30.3167 127.651 30.15V35C126.718 35.2 125.785 35.3 124.851 35.3ZM148.25 10H156.4L146.5 37.8C145.533 40.6333 143.917 42.7167 141.65 44.05C139.417 45.3833 136.333 46.05 132.4 46.05V41.15C134.1 41.15 135.55 40.85 136.75 40.25C137.95 39.6833 138.733 38.8667 139.1 37.8L140.15 35H138.55L129.8 10H137.9L143.05 28.3L148.25 10ZM167.286 45.75H159.286V10H166.686L167.286 12.85C168.886 10.75 171.002 9.7 173.636 9.7C176.869 9.7 179.452 10.85 181.386 13.15C183.352 15.4167 184.336 18.5333 184.336 22.5C184.336 26.4333 183.352 29.5667 181.386 31.9C179.419 34.1667 176.836 35.3 173.636 35.3C171.002 35.3 168.886 34.5 167.286 32.9V45.75ZM171.736 30.4C173.169 30.4 174.286 29.7167 175.086 28.35C175.919 26.9833 176.336 25.0333 176.336 22.5C176.336 19.9667 175.919 18.0167 175.086 16.65C174.286 15.2833 173.169 14.6 171.736 14.6C170.336 14.6 169.236 15.2833 168.436 16.65C167.669 17.9833 167.286 19.9333 167.286 22.5C167.286 25.0667 167.669 27.0333 168.436 28.4C169.236 29.7333 170.336 30.4 171.736 30.4ZM200.242 9.7C204.042 9.7 207.008 10.9667 209.142 13.5C211.275 16 212.125 19.65 211.692 24.45H195.442C195.442 26.3167 195.858 27.7833 196.692 28.85C197.558 29.8833 198.708 30.4 200.142 30.4C201.308 30.4 202.242 30.0833 202.942 29.45C203.642 28.7833 203.992 27.9 203.992 26.8H211.692C211.692 29.4 210.642 31.4667 208.542 33C206.475 34.5333 203.708 35.3 200.242 35.3C196.375 35.3 193.258 34.1667 190.892 31.9C188.525 29.6 187.342 26.4667 187.342 22.5C187.342 18.5 188.508 15.3833 190.842 13.15C193.175 10.85 196.308 9.7 200.242 9.7ZM200.142 14.6C198.775 14.6 197.658 15.1 196.792 16.1C195.925 17.1 195.492 18.4167 195.492 20.05H203.892C203.892 18.35 203.542 17.0167 202.842 16.05C202.175 15.0833 201.275 14.6 200.142 14.6Z" fill="white"/>
</svg>
