<svg width="80" height="80" viewBox="0 0 80 80" fill="none" xmlns="http://www.w3.org/2000/svg">
<g clip-path="url(#clip0)">
<path d="M76.599 2.00293H20.7187C18.8413 2.00512 17.32 3.52643 17.3178 5.40377V20.8169L14.7625 16.984C13.5929 15.2196 11.2406 14.6903 9.42793 15.7837L4.1707 18.9444C2.44902 19.9547 1.18606 21.5929 0.647173 23.5149C-1.27064 30.4981 0.152366 42.529 17.8114 60.1907C31.8547 74.2194 42.3252 77.9977 49.5417 77.9977C51.2124 78.0054 52.8768 77.7883 54.4896 77.3522C56.4109 76.8134 58.0491 75.5521 59.0614 73.8328L62.2181 68.5701C63.3071 66.7589 62.7783 64.4114 61.0178 63.2421L48.4294 54.8506C46.7026 53.7085 44.3879 54.084 43.1108 55.7135L39.4458 60.4253C39.0627 60.9295 38.3679 61.0764 37.8134 60.7707L37.1158 60.3865C34.8206 59.1356 31.9639 57.5779 26.1946 51.8085C25.5703 51.1842 25.0049 50.6002 24.4741 50.0413H76.599C78.4716 50.0427 79.9925 48.5291 79.9998 46.6564V5.40377C79.9976 3.52643 78.4763 2.00512 76.599 2.00293ZM35.8396 62.7286L36.5171 63.1008C38.2202 64.053 40.364 63.6112 41.5516 62.0632L45.2166 57.3514C45.6333 56.8206 46.3872 56.6983 46.9503 57.0699L59.5387 65.4614C60.1106 65.8425 60.2825 66.6055 59.9294 67.1951L56.7727 72.4578C56.1135 73.5882 55.0424 74.4197 53.784 74.7783C47.4798 76.512 36.4465 75.0451 19.7009 58.2983C2.9554 41.5516 1.49394 30.5193 3.22359 24.2204C3.58196 22.9621 4.41294 21.8913 5.54275 21.2317L10.8055 18.0736C11.3951 17.7213 12.1577 17.8931 12.5392 18.4643L20.9345 31.0527C21.3068 31.6157 21.1844 32.3702 20.653 32.7864L15.9398 36.4527C14.3921 37.64 13.9501 39.7833 14.9022 41.4859L15.2756 42.1634C16.6092 44.6094 18.267 47.6528 24.3099 53.6942C30.3529 59.7359 33.3951 61.3949 35.8396 62.7286ZM77.3326 46.6566C77.3282 47.0578 77.0002 47.3797 76.5992 47.3768H22.0682C20.3361 45.396 18.8424 43.2188 17.6178 40.8898L17.2336 40.1897C16.9273 39.6364 17.0739 38.9422 17.5777 38.5599L22.2909 34.8937C23.921 33.6168 24.2966 31.3019 23.1538 29.575L19.9851 24.8192V5.40377C19.9829 5.20856 20.0595 5.0207 20.1975 4.8827C20.3355 4.7447 20.5233 4.66812 20.7185 4.6703H76.599C76.7942 4.66812 76.9821 4.7447 77.1201 4.8827C77.2581 5.0207 77.3346 5.20856 77.3325 5.40377V46.6566H77.3326Z" fill="white"/>
<path d="M72.006 8.17746L49.7164 25.0816C49.0858 25.5399 48.2318 25.5399 47.6012 25.0816L25.3199 8.17746C24.7329 7.73219 23.896 7.84722 23.4509 8.43424C23.0056 9.02126 23.1207 9.85818 23.7077 10.3033L45.9918 27.206C47.5772 28.3773 49.741 28.3773 51.3264 27.206L73.6172 10.3033C73.8993 10.0895 74.0848 9.77222 74.1328 9.42151C74.1807 9.0708 74.0874 8.7154 73.8732 8.43361C73.4281 7.84769 72.5925 7.73313 72.006 8.17746Z" fill="white"/>
<path d="M37.2775 27.3186L23.6156 41.9489C23.1132 42.4876 23.1428 43.3317 23.6815 43.834C24.2202 44.3364 25.0644 44.3068 25.5667 43.7681L39.2288 29.1312C39.6801 28.5867 39.6278 27.7845 39.1097 27.3029C38.5914 26.8214 37.7875 26.8283 37.2775 27.3186Z" fill="white"/>
<path d="M60.1282 27.3188C59.6259 26.7801 58.782 26.7504 58.2431 27.2528C57.7044 27.7551 57.6747 28.5991 58.1771 29.138L71.8352 43.7683C72.3375 44.307 73.1815 44.3367 73.7203 43.8343C74.2591 43.3319 74.2888 42.488 73.7863 41.9491L60.1282 27.3188Z" fill="white"/>
</g>
<defs>
<clipPath id="clip0">
<rect width="80" height="80" fill="white"/>
</clipPath>
</defs>
</svg>
